<svg width="100" height="100" viewBox="0 0 100 100" fill="none" xmlns="http://www.w3.org/2000/svg">
<rect width="100" height="100" fill="white"/>
<path d="M26.2252 43.976C26.2005 43.9861 26.1769 43.9946 26.1523 44.0043V45.7632L25.9808 45.8247C24.8942 46.2144 23.8537 46.4119 22.8886 46.4119C21.1826 46.4119 19.7854 45.8896 18.7358 44.8596C18.6622 44.7875 18.5919 44.7133 18.5235 44.6379C18.6884 44.8718 18.8711 45.0936 19.0725 45.303C20.1721 46.4469 21.6303 47.0271 23.4067 47.0271C24.4018 47.0271 25.4716 46.8123 26.5862 46.3886L26.9295 46.2581V43.6885L26.2252 43.976Z" fill="#06599F"/>
<path d="M22.8242 35.0591C23.7578 35.0591 24.7693 35.22 25.8306 35.5371L26.0155 35.5925V37.5125C26.0297 37.5194 26.0439 37.5258 26.0582 37.5327L26.7925 37.8904V35.0793L26.4228 34.9622C25.3375 34.6184 24.3009 34.444 23.3423 34.444C21.5952 34.444 20.1541 35.0389 19.059 36.2121C18.8791 36.4048 18.7155 36.6084 18.5648 36.8208C18.6171 36.7633 18.67 36.7061 18.7251 36.6503C19.7698 35.5945 21.1489 35.0591 22.8242 35.0591Z" fill="#06599F"/>
<path d="M21.0734 35.9819C20.194 36.1478 19.4388 36.5849 18.8207 37.2871C18.0338 38.1812 17.6349 39.3239 17.6349 40.683C17.6349 42.068 18.0874 43.2228 18.9801 44.1151C19.8724 45.0076 21.0271 45.4603 22.4121 45.4603C23.01 45.4603 23.6849 45.3471 24.4258 45.1232V45.147C23.5796 45.4136 22.7737 45.5485 22.0254 45.5485C20.6532 45.5485 19.5624 45.1867 18.7 44.4461C18.7699 44.5238 18.8417 44.6004 18.9173 44.6745C19.9215 45.6601 21.2453 46.1527 22.8886 46.1527C23.8285 46.1527 24.8301 45.962 25.8934 45.5807V44.2757C24.8891 44.6624 24.0165 44.8557 23.2754 44.8557C22.0509 44.8557 21.0492 44.4664 20.2707 43.6877C19.4919 42.9091 19.1026 41.9074 19.1026 40.6829C19.1026 39.4692 19.4476 38.4705 20.1377 37.6863C20.8278 36.9023 21.7073 36.5101 22.776 36.5101C23.6996 36.5101 24.6932 36.7546 25.7566 37.2433V35.7852C24.7147 35.4737 23.7372 35.3179 22.8243 35.3179C21.2132 35.3179 19.9083 35.8228 18.9093 36.8323C18.8546 36.8877 18.8019 36.9443 18.7502 37.0016C19.3959 36.4477 20.1632 36.1105 21.0734 35.9819ZM24.2888 36.2438V36.3459C23.7454 36.1543 23.2161 36.0248 22.7042 35.9584C23.2111 36.0063 23.7408 36.1015 24.2888 36.2438Z" fill="#06599F"/>
<path d="M38.1754 43.976C38.1507 43.9861 38.1271 43.9946 38.1026 44.0043V45.7632L37.931 45.8247C36.8444 46.2144 35.8039 46.4119 34.8389 46.4119C33.1328 46.4119 31.7356 45.8896 30.6861 44.8596C30.6125 44.7875 30.5421 44.7133 30.4737 44.6379C30.6387 44.8718 30.8213 45.0936 31.0227 45.303C32.1223 46.4469 33.5805 47.0271 35.3569 47.0271C36.352 47.0271 37.4218 46.8123 38.5365 46.3886L38.8797 46.2581V43.6885L38.1754 43.976Z" fill="#06599F"/>
<path d="M34.7745 35.0591C35.708 35.0591 36.7195 35.22 37.7809 35.5371L37.9657 35.5925V37.5125C37.98 37.5194 37.9941 37.5258 38.0085 37.5327L38.7428 37.8904V35.0793L38.3731 34.9622C37.2877 34.6184 36.2512 34.444 35.2925 34.444C33.5454 34.444 32.1043 35.0389 31.0093 36.2121C30.8293 36.4048 30.6657 36.6084 30.5151 36.8208C30.5673 36.7633 30.6202 36.7061 30.6754 36.6503C31.72 35.5945 33.0991 35.0591 34.7745 35.0591Z" fill="#06599F"/>
<path d="M32.2822 37.8576C31.6383 38.5895 31.3117 39.5401 31.3117 40.6832C31.3117 41.847 31.669 42.77 32.4039 43.5048C33.1387 44.2398 34.0616 44.5971 35.2256 44.5971C35.4251 44.5971 35.6372 44.5802 35.859 44.5501C35.8207 44.5513 35.7811 44.5541 35.7437 44.5541C34.6519 44.5541 33.7889 44.2018 33.105 43.4768C32.4213 42.752 32.0887 41.8371 32.0887 40.6801C32.0887 39.521 32.3851 38.6006 32.9947 37.8663C33.5872 37.1526 34.323 36.8058 35.2442 36.8058C35.2785 36.8058 35.3132 36.8069 35.3479 36.8076C35.1365 36.7825 34.9289 36.7692 34.7262 36.7692C33.7262 36.7693 32.9269 37.1253 32.2822 37.8576Z" fill="#06599F"/>
<path d="M33.0236 35.9819C32.1442 36.1478 31.389 36.5849 30.7709 37.2871C29.984 38.1812 29.5851 39.3239 29.5851 40.683C29.5851 42.068 30.0376 43.2228 30.9303 44.1151C31.8226 45.0076 32.9772 45.4603 34.3623 45.4603C34.9602 45.4603 35.6351 45.3471 36.376 45.1232V45.147C35.5297 45.4136 34.7239 45.5485 33.9756 45.5485C32.6034 45.5485 31.5126 45.1867 30.6501 44.4461C30.7201 44.5238 30.7919 44.6004 30.8675 44.6745C31.8717 45.6601 33.1955 46.1527 34.8388 46.1527C35.7787 46.1527 36.7803 45.962 37.8436 45.5807V44.2757C36.8393 44.6624 35.9667 44.8557 35.2256 44.8557C34.0011 44.8557 32.9994 44.4664 32.2208 43.6877C31.4421 42.9091 31.0528 41.9074 31.0528 40.6829C31.0528 39.4692 31.3978 38.4705 32.0879 37.6863C32.778 36.9023 33.6575 36.5101 34.7262 36.5101C35.6498 36.5101 36.6434 36.7546 37.7068 37.2433V35.7852C36.6649 35.4737 35.6874 35.3179 34.7745 35.3179C33.1634 35.3179 31.8584 35.8228 30.8595 36.8323C30.8048 36.8877 30.7521 36.9443 30.7004 37.0016C31.3461 36.4477 32.1133 36.1105 33.0236 35.9819ZM36.239 36.2438V36.3459C35.6956 36.1543 35.1663 36.0248 34.6544 35.9584C35.1613 36.0063 35.691 36.1015 36.239 36.2438Z" fill="#06599F"/>
<path d="M85.2026 42.5394C84.8478 41.8808 84.2729 41.3661 83.5763 41.0935C79.0445 39.3188 72.1274 39.2807 72.1274 39.2807C68.6799 30.0269 60.6961 29.3013 51.3509 29.3919V25.9444L49.5815 21H46.8596L48.629 25.8538V51.4384H51.3509H73.8002C73.8002 48.9959 75.7805 47.0155 78.223 47.0155C80.6655 47.0155 82.6459 48.9959 82.6459 51.4384H90L85.2026 42.5394ZM49.8267 50.53H49.3729V25.7959L48.0458 22.1215L49.8267 25.5576V50.53ZM62.4655 41.6318C57.6407 40.4296 57.777 36.0068 57.777 36.0068H65.3748C62.1085 31.4248 51.3517 31.0784 51.3517 31.0784C68.0175 29.7399 70.0588 38.3541 71.4536 40.8377C79.6871 40.9565 83.0326 42.3117 83.0326 42.3117C76.8624 41.3372 62.4655 41.6318 62.4655 41.6318Z" fill="#06599F"/>
<path d="M46.8596 51.3843H10L45.127 49.1301V32.4272L10 30.2979H46.8596V51.3843Z" fill="#06599F"/>
<path d="M78.3231 47.8976C76.3518 47.8976 74.7533 49.4589 74.7533 51.3843H81.8928C81.8928 49.4589 80.2943 47.8976 78.3231 47.8976Z" fill="#06599F"/>
<line x1="11.0643" y1="54.8678" x2="88.9357" y2="54.8678" stroke="#06599F" stroke-width="2.12863" stroke-linecap="round"/>
<path d="M27.4356 60.5671H26.1075C26.0696 60.3493 25.9998 60.1563 25.898 59.9882C25.7962 59.8178 25.6695 59.6734 25.518 59.555C25.3665 59.4366 25.1937 59.3478 24.9996 59.2887C24.8078 59.2271 24.6006 59.1963 24.3781 59.1963C23.9827 59.1963 23.6324 59.2958 23.327 59.4946C23.0216 59.6911 22.7825 59.9799 22.6096 60.3611C22.4368 60.7399 22.3504 61.2027 22.3504 61.7496C22.3504 62.3059 22.4368 62.7747 22.6096 63.1558C22.7848 63.5346 23.0239 63.8211 23.327 64.0152C23.6324 64.207 23.9816 64.3029 24.3746 64.3029C24.5924 64.3029 24.796 64.2745 24.9854 64.2176C25.1771 64.1584 25.3488 64.072 25.5003 63.9584C25.6541 63.8448 25.7832 63.7051 25.8873 63.5394C25.9939 63.3736 26.0673 63.1843 26.1075 62.9712L27.4356 62.9783C27.3859 63.3239 27.2782 63.6483 27.1125 63.9513C26.9491 64.2543 26.7349 64.5218 26.4697 64.7539C26.2046 64.9835 25.8944 65.1634 25.5393 65.2936C25.1842 65.4215 24.79 65.4854 24.3568 65.4854C23.7176 65.4854 23.147 65.3374 22.6452 65.0415C22.1433 64.7456 21.7479 64.3182 21.4591 63.7595C21.1702 63.2008 21.0258 62.5308 21.0258 61.7496C21.0258 60.966 21.1714 60.296 21.4626 59.7396C21.7538 59.1809 22.1504 58.7536 22.6523 58.4577C23.1541 58.1618 23.7223 58.0138 24.3568 58.0138C24.7616 58.0138 25.1381 58.0706 25.4861 58.1843C25.8341 58.2979 26.1442 58.4648 26.4165 58.685C26.6887 58.9028 26.9124 59.1703 27.0876 59.4875C27.2652 59.8024 27.3812 60.1622 27.4356 60.5671ZM30.1549 65.496C29.8093 65.496 29.498 65.4345 29.221 65.3114C28.9463 65.1859 28.7285 65.0012 28.5676 64.7574C28.4089 64.5136 28.3296 64.2129 28.3296 63.8554C28.3296 63.5477 28.3865 63.2932 28.5001 63.0919C28.6137 62.8907 28.7688 62.7297 28.9653 62.609C29.1618 62.4882 29.3831 62.3971 29.6294 62.3355C29.8779 62.2716 30.1348 62.2254 30.3999 62.197C30.7195 62.1639 30.9788 62.1343 31.1776 62.1083C31.3765 62.0798 31.5209 62.0372 31.6109 61.9804C31.7032 61.9212 31.7494 61.8301 31.7494 61.707V61.6857C31.7494 61.4182 31.6701 61.211 31.5115 61.0642C31.3528 60.9174 31.1244 60.8441 30.8261 60.8441C30.5112 60.8441 30.2615 60.9127 30.0768 61.05C29.8945 61.1873 29.7714 61.3495 29.7075 61.5365L28.5072 61.3661C28.6019 61.0346 28.7581 60.7576 28.9759 60.5351C29.1937 60.3102 29.4601 60.1421 29.7749 60.0308C30.0898 59.9172 30.4378 59.8604 30.819 59.8604C31.0818 59.8604 31.3434 59.8912 31.6038 59.9527C31.8642 60.0143 32.1021 60.1161 32.3176 60.2581C32.533 60.3978 32.7058 60.5884 32.836 60.8298C32.9686 61.0713 33.0349 61.3732 33.0349 61.7354V65.386H31.7991V64.6367H31.7565C31.6784 64.7882 31.5683 64.9302 31.4262 65.0628C31.2865 65.193 31.1102 65.2984 30.8971 65.3789C30.6864 65.457 30.439 65.496 30.1549 65.496ZM30.4887 64.5514C30.7468 64.5514 30.9705 64.5005 31.1599 64.3987C31.3493 64.2946 31.4949 64.1573 31.5967 63.9868C31.7008 63.8164 31.7529 63.6305 31.7529 63.4293V62.7865C31.7127 62.8197 31.644 62.8504 31.547 62.8789C31.4523 62.9073 31.3457 62.9321 31.2274 62.9534C31.109 62.9747 30.9918 62.9937 30.8758 63.0102C30.7598 63.0268 30.6592 63.041 30.574 63.0529C30.3822 63.0789 30.2106 63.1215 30.059 63.1807C29.9075 63.2399 29.788 63.3227 29.7004 63.4293C29.6128 63.5334 29.569 63.6684 29.569 63.8341C29.569 64.0709 29.6554 64.2496 29.8282 64.3703C30.001 64.4911 30.2212 64.5514 30.4887 64.5514ZM34.3275 65.386V59.9314H35.574V60.8405H35.6308C35.7302 60.5256 35.9007 60.283 36.1421 60.1125C36.386 59.9397 36.6642 59.8533 36.9767 59.8533C37.0477 59.8533 37.127 59.8568 37.2146 59.8639C37.3045 59.8687 37.3791 59.877 37.4383 59.8888V61.0713C37.3838 61.0524 37.2974 61.0358 37.1791 61.0216C37.0631 61.005 36.9506 60.9968 36.8417 60.9968C36.6073 60.9968 36.3966 61.0477 36.2096 61.1494C36.0249 61.2489 35.8794 61.3874 35.7728 61.5649C35.6663 61.7425 35.613 61.9473 35.613 62.1793V65.386H34.3275ZM40.4825 65.4925C39.9356 65.4925 39.4633 65.3789 39.0656 65.1516C38.6702 64.9219 38.366 64.5976 38.153 64.1786C37.9399 63.7572 37.8334 63.2612 37.8334 62.6906C37.8334 62.1296 37.9399 61.6371 38.153 61.2134C38.3684 60.7872 38.6691 60.4558 39.055 60.2191C39.4408 59.9799 39.8942 59.8604 40.415 59.8604C40.7512 59.8604 41.0684 59.9148 41.3667 60.0237C41.6674 60.1303 41.9326 60.296 42.1622 60.5209C42.3942 60.7458 42.5765 61.0323 42.7091 61.3803C42.8416 61.7259 42.9079 62.1378 42.9079 62.6161V63.0102H38.4371V62.1438H41.6757C41.6733 61.8976 41.6201 61.6786 41.5159 61.4868C41.4117 61.2927 41.2661 61.14 41.0791 61.0287C40.8944 60.9174 40.679 60.8618 40.4328 60.8618C40.17 60.8618 39.9392 60.9257 39.7403 61.0536C39.5415 61.179 39.3864 61.3448 39.2751 61.5507C39.1662 61.7543 39.1106 61.978 39.1082 62.2219V62.9783C39.1082 63.2955 39.1662 63.5678 39.2822 63.795C39.3982 64.02 39.5604 64.1928 39.7687 64.3135C39.9771 64.4319 40.2209 64.4911 40.5003 64.4911C40.6873 64.4911 40.8566 64.465 41.0081 64.4129C41.1596 64.3585 41.291 64.2792 41.4023 64.175C41.5135 64.0709 41.5976 63.9418 41.6544 63.7879L42.8547 63.9229C42.7789 64.2401 42.6345 64.5171 42.4214 64.7539C42.2107 64.9882 41.9408 65.1705 41.6118 65.3007C41.2827 65.4286 40.9063 65.4925 40.4825 65.4925ZM46.7583 59.9314V60.9257H43.5338V59.9314H46.7583ZM44.3399 65.386V59.4165C44.3399 59.0495 44.4157 58.7441 44.5672 58.5003C44.7211 58.2565 44.9271 58.0742 45.1851 57.9534C45.4432 57.8327 45.7296 57.7723 46.0445 57.7723C46.267 57.7723 46.4647 57.7901 46.6375 57.8256C46.8103 57.8611 46.9382 57.8931 47.021 57.9215L46.7654 58.9158C46.7109 58.8992 46.6423 58.8826 46.5594 58.8661C46.4765 58.8471 46.3842 58.8377 46.2824 58.8377C46.0433 58.8377 45.874 58.8957 45.7746 59.0117C45.6775 59.1253 45.629 59.2887 45.629 59.5017V65.386H44.3399ZM51.2416 63.0919V59.9314H52.5271V65.386H51.2806V64.4165H51.2238C51.1007 64.7219 50.8983 64.9717 50.6166 65.1658C50.3372 65.3599 49.9927 65.457 49.5832 65.457C49.2257 65.457 48.9097 65.3777 48.635 65.2191C48.3628 65.0581 48.1497 64.8249 47.9958 64.5195C47.8419 64.2117 47.765 63.84 47.765 63.4044V59.9314H49.0505V63.2056C49.0505 63.5512 49.1452 63.8258 49.3346 64.0294C49.524 64.233 49.7726 64.3348 50.0803 64.3348C50.2697 64.3348 50.4532 64.2887 50.6308 64.1963C50.8083 64.104 50.9539 63.9667 51.0676 63.7844C51.1836 63.5997 51.2416 63.3689 51.2416 63.0919ZM55.1345 58.1132V65.386H53.849V58.1132H55.1345ZM65.2188 60.5671H63.8907C63.8528 60.3493 63.783 60.1563 63.6812 59.9882C63.5794 59.8178 63.4527 59.6734 63.3012 59.555C63.1497 59.4366 62.9769 59.3478 62.7828 59.2887C62.591 59.2271 62.3838 59.1963 62.1613 59.1963C61.766 59.1963 61.4156 59.2958 61.1102 59.4946C60.8048 59.6911 60.5657 59.9799 60.3928 60.3611C60.22 60.7399 60.1336 61.2027 60.1336 61.7496C60.1336 62.3059 60.22 62.7747 60.3928 63.1558C60.568 63.5346 60.8071 63.8211 61.1102 64.0152C61.4156 64.207 61.7648 64.3029 62.1578 64.3029C62.3756 64.3029 62.5792 64.2745 62.7686 64.2176C62.9603 64.1584 63.132 64.072 63.2835 63.9584C63.4374 63.8448 63.5664 63.7051 63.6705 63.5394C63.7771 63.3736 63.8505 63.1843 63.8907 62.9712L65.2188 62.9783C65.1691 63.3239 65.0614 63.6483 64.8957 63.9513C64.7323 64.2543 64.5181 64.5218 64.2529 64.7539C63.9878 64.9835 63.6776 65.1634 63.3225 65.2936C62.9674 65.4215 62.5732 65.4854 62.14 65.4854C61.5008 65.4854 60.9302 65.3374 60.4284 65.0415C59.9265 64.7456 59.5311 64.3182 59.2423 63.7595C58.9535 63.2008 58.809 62.5308 58.809 61.7496C58.809 60.966 58.9546 60.296 59.2458 59.7396C59.537 59.1809 59.9336 58.7536 60.4355 58.4577C60.9374 58.1618 61.5055 58.0138 62.14 58.0138C62.5448 58.0138 62.9213 58.0706 63.2693 58.1843C63.6173 58.2979 63.9274 58.4648 64.1997 58.685C64.4719 58.9028 64.6956 59.1703 64.8708 59.4875C65.0484 59.8024 65.1644 60.1622 65.2188 60.5671ZM67.9381 65.496C67.5925 65.496 67.2812 65.4345 67.0042 65.3114C66.7296 65.1859 66.5117 65.0012 66.3508 64.7574C66.1921 64.5136 66.1128 64.2129 66.1128 63.8554C66.1128 63.5477 66.1697 63.2932 66.2833 63.0919C66.3969 62.8907 66.552 62.7297 66.7485 62.609C66.945 62.4882 67.1663 62.3971 67.4126 62.3355C67.6611 62.2716 67.918 62.2254 68.1831 62.197C68.5028 62.1639 68.762 62.1343 68.9608 62.1083C69.1597 62.0798 69.3041 62.0372 69.3941 61.9804C69.4864 61.9212 69.5326 61.8301 69.5326 61.707V61.6857C69.5326 61.4182 69.4533 61.211 69.2947 61.0642C69.136 60.9174 68.9076 60.8441 68.6093 60.8441C68.2944 60.8441 68.0447 60.9127 67.86 61.05C67.6777 61.1873 67.5546 61.3495 67.4907 61.5365L66.2904 61.3661C66.3851 61.0346 66.5413 60.7576 66.7591 60.5351C66.9769 60.3102 67.2433 60.1421 67.5581 60.0308C67.873 59.9172 68.221 59.8604 68.6022 59.8604C68.865 59.8604 69.1266 59.8912 69.387 59.9527C69.6474 60.0143 69.8853 60.1161 70.1008 60.2581C70.3162 60.3978 70.489 60.5884 70.6192 60.8298C70.7518 61.0713 70.8181 61.3732 70.8181 61.7354V65.386H69.5823V64.6367H69.5397C69.4616 64.7882 69.3515 64.9302 69.2094 65.0628C69.0698 65.193 68.8934 65.2984 68.6803 65.3789C68.4696 65.457 68.2222 65.496 67.9381 65.496ZM68.2719 64.5514C68.53 64.5514 68.7537 64.5005 68.9431 64.3987C69.1325 64.2946 69.2781 64.1573 69.3799 63.9868C69.484 63.8164 69.5361 63.6305 69.5361 63.4293V62.7865C69.4959 62.8197 69.4272 62.8504 69.3302 62.8789C69.2355 62.9073 69.1289 62.9321 69.0106 62.9534C68.8922 62.9747 68.775 62.9937 68.659 63.0102C68.543 63.0268 68.4424 63.041 68.3572 63.0529C68.1654 63.0789 67.9938 63.1215 67.8422 63.1807C67.6907 63.2399 67.5712 63.3227 67.4836 63.4293C67.396 63.5334 67.3522 63.6684 67.3522 63.8341C67.3522 64.0709 67.4386 64.2496 67.6114 64.3703C67.7842 64.4911 68.0044 64.5514 68.2719 64.5514ZM72.1107 65.386V59.9314H73.3572V60.8405H73.414C73.5134 60.5256 73.6839 60.283 73.9253 60.1125C74.1692 59.9397 74.4474 59.8533 74.7599 59.8533C74.8309 59.8533 74.9102 59.8568 74.9978 59.8639C75.0877 59.8687 75.1623 59.877 75.2215 59.8888V61.0713C75.1671 61.0524 75.0806 61.0358 74.9623 61.0216C74.8463 61.005 74.7338 60.9968 74.6249 60.9968C74.3905 60.9968 74.1798 61.0477 73.9928 61.1494C73.8081 61.2489 73.6626 61.3874 73.556 61.5649C73.4495 61.7425 73.3962 61.9473 73.3962 62.1793V65.386H72.1107ZM79.0922 59.9314V60.9257H75.9566V59.9314H79.0922ZM76.7307 58.6246H78.0162V63.7453C78.0162 63.9182 78.0423 64.0507 78.0944 64.1431C78.1488 64.233 78.2198 64.2946 78.3074 64.3277C78.395 64.3609 78.4921 64.3774 78.5986 64.3774C78.6791 64.3774 78.7525 64.3715 78.8188 64.3597C78.8875 64.3478 78.9395 64.3372 78.9751 64.3277L79.1917 65.3327C79.123 65.3564 79.0248 65.3824 78.8969 65.4108C78.7715 65.4392 78.6176 65.4558 78.4353 65.4605C78.1133 65.47 77.8233 65.4215 77.5653 65.3149C77.3072 65.206 77.1024 65.0379 76.9509 64.8107C76.8018 64.5834 76.7284 64.2993 76.7307 63.9584V58.6246ZM12.1675 77.386V70.1132H14.8948C15.4535 70.1132 15.9223 70.2174 16.301 70.4257C16.6822 70.6341 16.9698 70.9205 17.164 71.2851C17.3605 71.6473 17.4587 72.0593 17.4587 72.5209C17.4587 72.9873 17.3605 73.4016 17.164 73.7638C16.9675 74.126 16.6775 74.4113 16.2939 74.6196C15.9104 74.8256 15.4381 74.9286 14.877 74.9286H13.0695V73.8455H14.6995C15.0262 73.8455 15.2937 73.7887 15.502 73.675C15.7104 73.5614 15.8643 73.4051 15.9637 73.2063C16.0655 73.0074 16.1164 72.7789 16.1164 72.5209C16.1164 72.2628 16.0655 72.0356 15.9637 71.8391C15.8643 71.6426 15.7092 71.4899 15.4985 71.381C15.2902 71.2697 15.0215 71.2141 14.6924 71.2141H13.485V77.386H12.1675ZM20.0182 77.496C19.6726 77.496 19.3612 77.4345 19.0843 77.3114C18.8096 77.1859 18.5918 77.0012 18.4308 76.7574C18.2722 76.5136 18.1929 76.2129 18.1929 75.8554C18.1929 75.5477 18.2497 75.2932 18.3634 75.0919C18.477 74.8907 18.6321 74.7297 18.8286 74.609C19.0251 74.4882 19.2464 74.3971 19.4926 74.3355C19.7412 74.2716 19.9981 74.2254 20.2632 74.197C20.5828 74.1639 20.8421 74.1343 21.0409 74.1083C21.2398 74.0798 21.3842 74.0372 21.4742 73.9804C21.5665 73.9212 21.6127 73.8301 21.6127 73.707V73.6857C21.6127 73.4182 21.5334 73.211 21.3747 73.0642C21.2161 72.9174 20.9877 72.8441 20.6894 72.8441C20.3745 72.8441 20.1247 72.9127 19.9401 73.05C19.7578 73.1873 19.6347 73.3495 19.5708 73.5365L18.3705 73.3661C18.4652 73.0346 18.6214 72.7576 18.8392 72.5351C19.057 72.3102 19.3234 72.1421 19.6382 72.0308C19.9531 71.9172 20.3011 71.8604 20.6823 71.8604C20.945 71.8604 21.2066 71.8912 21.4671 71.9527C21.7275 72.0143 21.9654 72.1161 22.1808 72.2581C22.3963 72.3978 22.5691 72.5884 22.6993 72.8298C22.8319 73.0713 22.8982 73.3732 22.8982 73.7354V77.386H21.6624V76.6367H21.6198C21.5416 76.7882 21.4316 76.9302 21.2895 77.0628C21.1498 77.193 20.9735 77.2984 20.7604 77.3789C20.5497 77.457 20.3023 77.496 20.0182 77.496ZM20.352 76.5514C20.6101 76.5514 20.8338 76.5005 21.0232 76.3987C21.2126 76.2946 21.3582 76.1573 21.46 75.9868C21.5641 75.8164 21.6162 75.6305 21.6162 75.4293V74.7865C21.576 74.8197 21.5073 74.8504 21.4102 74.8789C21.3155 74.9073 21.209 74.9321 21.0906 74.9534C20.9723 74.9747 20.8551 74.9937 20.7391 75.0102C20.6231 75.0268 20.5225 75.041 20.4372 75.0529C20.2455 75.0789 20.0738 75.1215 19.9223 75.1807C19.7708 75.2399 19.6512 75.3227 19.5637 75.4293C19.4761 75.5334 19.4323 75.6684 19.4323 75.8341C19.4323 76.0709 19.5187 76.2496 19.6915 76.3703C19.8643 76.4911 20.0845 76.5514 20.352 76.5514ZM26.57 77.4925C26.0255 77.4925 25.558 77.3729 25.1673 77.1338C24.7791 76.8947 24.4796 76.5645 24.2689 76.1431C24.0606 75.7193 23.9564 75.2316 23.9564 74.68C23.9564 74.126 24.0629 73.6371 24.276 73.2134C24.4891 72.7872 24.7897 72.4558 25.178 72.2191C25.5686 71.9799 26.0303 71.8604 26.5629 71.8604C27.0057 71.8604 27.3975 71.9421 27.7384 72.1054C28.0816 72.2664 28.3551 72.4949 28.5587 72.7908C28.7623 73.0843 28.8783 73.4276 28.9067 73.8206H27.678C27.6283 73.5578 27.5099 73.3388 27.3229 73.1637C27.1382 72.9861 26.8908 72.8973 26.5807 72.8973C26.3179 72.8973 26.0871 72.9683 25.8882 73.1104C25.6894 73.2501 25.5343 73.4513 25.423 73.7141C25.3141 73.9769 25.2597 74.2917 25.2597 74.6587C25.2597 75.0304 25.3141 75.35 25.423 75.6175C25.5319 75.8826 25.6846 76.0874 25.8811 76.2318C26.08 76.3739 26.3132 76.4449 26.5807 76.4449C26.7701 76.4449 26.9394 76.4094 27.0885 76.3384C27.24 76.265 27.3667 76.1596 27.4685 76.0223C27.5703 75.885 27.6401 75.7181 27.678 75.5216H28.9067C28.8759 75.9075 28.7623 76.2496 28.5658 76.5479C28.3693 76.8438 28.1018 77.0758 27.7632 77.2439C27.4247 77.4096 27.027 77.4925 26.57 77.4925ZM31.1341 75.6743L31.1306 74.1225H31.3366L33.2968 71.9314H34.7989L32.3877 74.6161H32.1214L31.1341 75.6743ZM29.9623 77.386V70.1132H31.2478V77.386H29.9623ZM33.3856 77.386L31.61 74.9037L32.4765 73.9982L34.9232 77.386H33.3856ZM37.8458 77.4925C37.2989 77.4925 36.8266 77.3789 36.4289 77.1516C36.0335 76.9219 35.7293 76.5976 35.5162 76.1786C35.3032 75.7572 35.1966 75.2612 35.1966 74.6906C35.1966 74.1296 35.3032 73.6371 35.5162 73.2134C35.7317 72.7872 36.0323 72.4558 36.4182 72.2191C36.8041 71.9799 37.2575 71.8604 37.7783 71.8604C38.1145 71.8604 38.4317 71.9148 38.73 72.0237C39.0307 72.1303 39.2958 72.296 39.5255 72.5209C39.7575 72.7458 39.9398 73.0323 40.0724 73.3803C40.2049 73.7259 40.2712 74.1378 40.2712 74.6161V75.0102H35.8003V74.1438H39.039C39.0366 73.8976 38.9833 73.6786 38.8792 73.4868C38.775 73.2927 38.6294 73.14 38.4424 73.0287C38.2577 72.9174 38.0423 72.8618 37.7961 72.8618C37.5333 72.8618 37.3025 72.9257 37.1036 73.0536C36.9047 73.179 36.7497 73.3448 36.6384 73.5507C36.5295 73.7543 36.4739 73.978 36.4715 74.2219V74.9783C36.4715 75.2955 36.5295 75.5678 36.6455 75.795C36.7615 76.02 36.9237 76.1928 37.132 76.3135C37.3403 76.4319 37.5842 76.4911 37.8635 76.4911C38.0506 76.4911 38.2198 76.465 38.3714 76.4129C38.5229 76.3585 38.6543 76.2792 38.7655 76.175C38.8768 76.0709 38.9608 75.9418 39.0177 75.7879L40.218 75.9229C40.1422 76.2401 39.9978 76.5171 39.7847 76.7539C39.574 76.9882 39.3041 77.1705 38.9751 77.3007C38.646 77.4286 38.2696 77.4925 37.8458 77.4925ZM41.3588 77.386V71.9314H42.6052V72.8405H42.662C42.7615 72.5256 42.9319 72.283 43.1734 72.1125C43.4172 71.9397 43.6954 71.8533 44.0079 71.8533C44.0789 71.8533 44.1582 71.8568 44.2458 71.8639C44.3358 71.8687 44.4104 71.877 44.4695 71.8888V73.0713C44.4151 73.0524 44.3287 73.0358 44.2103 73.0216C44.0943 73.005 43.9819 72.9968 43.873 72.9968C43.6386 72.9968 43.4279 73.0477 43.2409 73.1494C43.0562 73.2489 42.9106 73.3874 42.8041 73.5649C42.6975 73.7425 42.6443 73.9473 42.6443 74.1793V77.386H41.3588ZM49.6347 73.3732L48.4628 73.501C48.4297 73.3826 48.3717 73.2714 48.2888 73.1672C48.2083 73.063 48.0994 72.979 47.9621 72.9151C47.8248 72.8512 47.6567 72.8192 47.4578 72.8192C47.1903 72.8192 46.9654 72.8772 46.7831 72.9932C46.6032 73.1092 46.5144 73.2595 46.5168 73.4442C46.5144 73.6028 46.5724 73.7318 46.6908 73.8313C46.8115 73.9307 47.0104 74.0124 47.2874 74.0763L48.2178 74.2752C48.7339 74.3864 49.1174 74.5628 49.3683 74.8043C49.6217 75.0458 49.7495 75.3618 49.7519 75.7524C49.7495 76.0957 49.6489 76.3987 49.45 76.6615C49.2535 76.9219 48.9801 77.1255 48.6297 77.2723C48.2793 77.4191 47.8769 77.4925 47.4223 77.4925C46.7547 77.4925 46.2173 77.3528 45.8101 77.0735C45.4029 76.7917 45.1602 76.3999 45.0821 75.898L46.3357 75.7773C46.3925 76.0235 46.5132 76.2093 46.6979 76.3348C46.8825 76.4603 47.1228 76.523 47.4188 76.523C47.7242 76.523 47.9692 76.4603 48.1539 76.3348C48.3409 76.2093 48.4344 76.0543 48.4344 75.8696C48.4344 75.7134 48.374 75.5843 48.2533 75.4825C48.1349 75.3807 47.9503 75.3026 47.6993 75.2482L46.7689 75.0529C46.2457 74.944 45.8586 74.7605 45.6077 74.5024C45.3567 74.242 45.2325 73.9129 45.2348 73.5152C45.2325 73.179 45.3236 72.8878 45.5083 72.6416C45.6953 72.3931 45.9545 72.2013 46.286 72.0664C46.6198 71.929 47.0045 71.8604 47.4401 71.8604C48.0793 71.8604 48.5824 71.9965 48.9493 72.2688C49.3186 72.541 49.5471 72.9092 49.6347 73.3732ZM53.3492 70.1132H54.9614L57.1205 75.3831H57.2057L59.3648 70.1132H60.977V77.386H59.7128V72.3895H59.6453L57.6354 77.3646H56.6908L54.6808 72.3789H54.6134V77.386H53.3492V70.1132ZM64.7341 77.4925C64.2014 77.4925 63.7398 77.3753 63.3492 77.1409C62.9585 76.9066 62.6555 76.5787 62.4401 76.1573C62.227 75.7359 62.1205 75.2434 62.1205 74.68C62.1205 74.1165 62.227 73.6229 62.4401 73.1992C62.6555 72.7754 62.9585 72.4463 63.3492 72.212C63.7398 71.9776 64.2014 71.8604 64.7341 71.8604C65.2668 71.8604 65.7284 71.9776 66.1191 72.212C66.5097 72.4463 66.8115 72.7754 67.0246 73.1992C67.24 73.6229 67.3477 74.1165 67.3477 74.68C67.3477 75.2434 67.24 75.7359 67.0246 76.1573C66.8115 76.5787 66.5097 76.9066 66.1191 77.1409C65.7284 77.3753 65.2668 77.4925 64.7341 77.4925ZM64.7412 76.4627C65.03 76.4627 65.2715 76.3834 65.4656 76.2247C65.6598 76.0637 65.8042 75.8483 65.8989 75.5784C65.9959 75.3085 66.0445 75.0079 66.0445 74.6764C66.0445 74.3426 65.9959 74.0408 65.8989 73.7709C65.8042 73.4986 65.6598 73.282 65.4656 73.121C65.2715 72.9601 65.03 72.8796 64.7412 72.8796C64.4453 72.8796 64.1991 72.9601 64.0026 73.121C63.8084 73.282 63.6628 73.4986 63.5658 73.7709C63.4711 74.0408 63.4237 74.3426 63.4237 74.6764C63.4237 75.0079 63.4711 75.3085 63.5658 75.5784C63.6628 75.8483 63.8084 76.0637 64.0026 76.2247C64.1991 76.3834 64.4453 76.4627 64.7412 76.4627ZM73.1254 71.9314L71.183 77.386H69.7625L67.82 71.9314H69.1908L70.4443 75.9833H70.5012L71.7583 71.9314H73.1254ZM76.2442 77.4925C75.6974 77.4925 75.2251 77.3789 74.8273 77.1516C74.432 76.9219 74.1278 76.5976 73.9147 76.1786C73.7016 75.7572 73.5951 75.2612 73.5951 74.6906C73.5951 74.1296 73.7016 73.6371 73.9147 73.2134C74.1301 72.7872 74.4308 72.4558 74.8167 72.2191C75.2026 71.9799 75.6559 71.8604 76.1768 71.8604C76.5129 71.8604 76.8302 71.9148 77.1285 72.0237C77.4291 72.1303 77.6943 72.296 77.9239 72.5209C78.1559 72.7458 78.3382 73.0323 78.4708 73.3803C78.6034 73.7259 78.6697 74.1378 78.6697 74.6161V75.0102H74.1988V74.1438H77.4374C77.435 73.8976 77.3818 73.6786 77.2776 73.4868C77.1734 73.2927 77.0278 73.14 76.8408 73.0287C76.6562 72.9174 76.4407 72.8618 76.1945 72.8618C75.9317 72.8618 75.7009 72.9257 75.502 73.0536C75.3032 73.179 75.1481 73.3448 75.0368 73.5507C74.9279 73.7543 74.8723 73.978 74.8699 74.2219V74.9783C74.8699 75.2955 74.9279 75.5678 75.0439 75.795C75.1599 76.02 75.3221 76.1928 75.5305 76.3135C75.7388 76.4319 75.9826 76.4911 76.262 76.4911C76.449 76.4911 76.6183 76.465 76.7698 76.4129C76.9213 76.3585 77.0527 76.2792 77.164 76.175C77.2752 76.0709 77.3593 75.9418 77.4161 75.7879L78.6164 75.9229C78.5406 76.2401 78.3962 76.5171 78.1832 76.7539C77.9724 76.9882 77.7026 77.1705 77.3735 77.3007C77.0444 77.4286 76.668 77.4925 76.2442 77.4925ZM79.7572 77.386V71.9314H81.0036V72.8405H81.0605C81.1599 72.5256 81.3303 72.283 81.5718 72.1125C81.8157 71.9397 82.0938 71.8533 82.4063 71.8533C82.4774 71.8533 82.5567 71.8568 82.6443 71.8639C82.7342 71.8687 82.8088 71.877 82.868 71.8888V73.0713C82.8135 73.0524 82.7271 73.0358 82.6088 73.0216C82.4927 73.005 82.3803 72.9968 82.2714 72.9968C82.037 72.9968 81.8263 73.0477 81.6393 73.1494C81.4546 73.2489 81.309 73.3874 81.2025 73.5649C81.096 73.7425 81.0427 73.9473 81.0427 74.1793V77.386H79.7572ZM88.0331 73.3732L86.8612 73.501C86.8281 73.3826 86.7701 73.2714 86.6872 73.1672C86.6067 73.063 86.4978 72.979 86.3605 72.9151C86.2232 72.8512 86.0551 72.8192 85.8563 72.8192C85.5887 72.8192 85.3638 72.8772 85.1816 72.9932C85.0016 73.1092 84.9128 73.2595 84.9152 73.4442C84.9128 73.6028 84.9709 73.7318 85.0892 73.8313C85.21 73.9307 85.4088 74.0124 85.6858 74.0763L86.6162 74.2752C87.1323 74.3864 87.5158 74.5628 87.7668 74.8043C88.0201 75.0458 88.1479 75.3618 88.1503 75.7524C88.1479 76.0957 88.0473 76.3987 87.8485 76.6615C87.652 76.9219 87.3785 77.1255 87.0281 77.2723C86.6778 77.4191 86.2753 77.4925 85.8208 77.4925C85.1531 77.4925 84.6157 77.3528 84.2085 77.0735C83.8013 76.7917 83.5587 76.3999 83.4806 75.898L84.7341 75.7773C84.7909 76.0235 84.9117 76.2093 85.0963 76.3348C85.281 76.4603 85.5213 76.523 85.8172 76.523C86.1226 76.523 86.3676 76.4603 86.5523 76.3348C86.7393 76.2093 86.8328 76.0543 86.8328 75.8696C86.8328 75.7134 86.7725 75.5843 86.6517 75.4825C86.5334 75.3807 86.3487 75.3026 86.0977 75.2482L85.1673 75.0529C84.6441 74.944 84.2571 74.7605 84.0061 74.5024C83.7552 74.242 83.6309 73.9129 83.6333 73.5152C83.6309 73.179 83.722 72.8878 83.9067 72.6416C84.0937 72.3931 84.353 72.2013 84.6844 72.0664C85.0182 71.929 85.4029 71.8604 85.8385 71.8604C86.4777 71.8604 86.9808 71.9965 87.3477 72.2688C87.7171 72.541 87.9455 72.9092 88.0331 73.3732Z" fill="#06599F"/>
</svg>
