<svg width="122" height="18" viewBox="0 0 122 18" fill="none" xmlns="http://www.w3.org/2000/svg">
<path d="M9 0L11.0206 6.21885H17.5595L12.2694 10.0623L14.2901 16.2812L9 12.4377L3.70993 16.2812L5.73056 10.0623L0.440492 6.21885H6.97937L9 0Z" fill="#FF972F"/>
<path d="M35 0L37.0206 6.21885H43.5595L38.2694 10.0623L40.2901 16.2812L35 12.4377L29.7099 16.2812L31.7306 10.0623L26.4405 6.21885H32.9794L35 0Z" fill="#FF972F"/>
<path d="M61 0L63.0206 6.21885H69.5595L64.2694 10.0623L66.2901 16.2812L61 12.4377L55.7099 16.2812L57.7306 10.0623L52.4405 6.21885H58.9794L61 0Z" fill="#FF972F"/>
<path d="M87 0L89.0206 6.21885H95.5595L90.2694 10.0623L92.2901 16.2812L87 12.4377L81.7099 16.2812L83.7306 10.0623L78.4405 6.21885H84.9794L87 0Z" fill="#FF972F"/>
<path d="M113 0L115.021 6.21885H121.56L116.269 10.0623L118.29 16.2812L113 12.4377L107.71 16.2812L109.731 10.0623L104.44 6.21885H110.979L113 0Z" fill="#FF972F"/>
</svg>
