<svg width="29" height="29" viewBox="0 0 29 29" fill="none" xmlns="http://www.w3.org/2000/svg">
<g clip-path="url(#clip0_9_103)">
<path d="M13.8783 11.3227C14.0777 10.7245 14.9223 10.7245 15.1217 11.3227L16.2907 14.8335C16.5481 15.6052 16.9816 16.3065 17.557 16.8816C18.1324 17.4567 18.8339 17.8898 19.6058 18.1467L23.1148 19.3158C23.7129 19.5152 23.7129 20.3598 23.1148 20.5592L19.604 21.7282C18.8322 21.9855 18.131 22.4191 17.5559 22.9945C16.9808 23.5699 16.5476 24.2714 16.2907 25.0433L15.1217 28.5523C15.0787 28.6833 14.9954 28.7973 14.8838 28.8782C14.7722 28.959 14.6378 29.0026 14.5 29.0026C14.3621 29.0026 14.2278 28.959 14.1162 28.8782C14.0045 28.7973 13.9213 28.6833 13.8783 28.5523L12.7092 25.0415C12.4521 24.2699 12.0188 23.5688 11.4437 22.9937C10.8687 22.4186 10.1676 21.9854 9.39599 21.7282L5.88518 20.5592C5.75421 20.5162 5.64015 20.4329 5.55929 20.3213C5.47844 20.2096 5.4349 20.0753 5.4349 19.9375C5.4349 19.7996 5.47844 19.6653 5.55929 19.5537C5.64015 19.442 5.75421 19.3588 5.88518 19.3158L9.39599 18.1467C10.1676 17.8896 10.8687 17.4563 11.4437 16.8812C12.0188 16.3061 12.4521 15.605 12.7092 14.8335L13.8783 11.3227ZM6.87662 2.08072C6.90261 2.00223 6.95267 1.93393 7.0197 1.88551C7.08673 1.8371 7.16731 1.81104 7.24999 1.81104C7.33267 1.81104 7.41325 1.8371 7.48028 1.88551C7.54731 1.93393 7.59738 2.00223 7.62337 2.08072L8.3248 4.18685C8.63837 5.12572 9.37424 5.8616 10.3131 6.17516L12.4192 6.8766C12.4977 6.90259 12.566 6.95265 12.6145 7.01968C12.6629 7.08671 12.6889 7.16729 12.6889 7.24997C12.6889 7.33265 12.6629 7.41323 12.6145 7.48026C12.566 7.54729 12.4977 7.59736 12.4192 7.62335L10.3131 8.32478C9.8498 8.47855 9.42878 8.73838 9.08359 9.08357C8.7384 9.42876 8.47857 9.84978 8.3248 10.3131L7.62337 12.4192C7.59738 12.4977 7.54731 12.566 7.48028 12.6144C7.41325 12.6628 7.33267 12.6889 7.24999 12.6889C7.16731 12.6889 7.08673 12.6628 7.0197 12.6144C6.95267 12.566 6.90261 12.4977 6.87662 12.4192L6.17518 10.3131C6.02141 9.84978 5.76159 9.42876 5.4164 9.08357C5.07121 8.73838 4.65019 8.47855 4.18687 8.32478L2.08074 7.62335C2.00225 7.59736 1.93395 7.54729 1.88553 7.48026C1.83712 7.41323 1.81107 7.33265 1.81107 7.24997C1.81107 7.16729 1.83712 7.08671 1.88553 7.01968C1.93395 6.95265 2.00225 6.90259 2.08074 6.8766L4.18687 6.17516C4.65019 6.02139 5.07121 5.76157 5.4164 5.41638C5.76159 5.07119 6.02141 4.65017 6.17518 4.18685L6.87662 2.08072ZM19.6892 0.179409C19.7071 0.1278 19.7406 0.0830492 19.7851 0.051377C19.8296 0.0197048 19.8829 0.00268555 19.9375 0.00268555C19.9921 0.00268555 20.0454 0.0197048 20.0899 0.051377C20.1344 0.0830492 20.1679 0.1278 20.1858 0.179409L20.6534 1.58228C20.8619 2.20941 21.3531 2.7006 21.9802 2.90903L23.3831 3.37666C23.4347 3.39455 23.4794 3.42808 23.5111 3.47258C23.5428 3.51708 23.5598 3.57035 23.5598 3.62497C23.5598 3.67959 23.5428 3.73286 23.5111 3.77736C23.4794 3.82186 23.4347 3.85539 23.3831 3.87328L21.9802 4.34091C21.6714 4.44422 21.3908 4.61784 21.1606 4.84808C20.9304 5.07831 20.7567 5.35888 20.6534 5.66766L20.1858 7.07053C20.1679 7.12214 20.1344 7.16689 20.0899 7.19857C20.0454 7.23024 19.9921 7.24726 19.9375 7.24726C19.8829 7.24726 19.8296 7.23024 19.7851 7.19857C19.7406 7.16689 19.7071 7.12214 19.6892 7.07053L19.2216 5.66766C19.1182 5.35888 18.9446 5.07831 18.7144 4.84808C18.4842 4.61784 18.2036 4.44422 17.8948 4.34091L16.4937 3.87328C16.4421 3.85539 16.3974 3.82186 16.3657 3.77736C16.334 3.73286 16.317 3.67959 16.317 3.62497C16.317 3.57035 16.334 3.51708 16.3657 3.47258C16.3974 3.42808 16.4421 3.39455 16.4937 3.37666L17.8966 2.90903C18.5237 2.7006 19.0149 2.20941 19.2234 1.58228L19.6892 0.179409Z" fill="#06599F"/>
</g>
<defs>
<clipPath id="clip0_9_103">
<rect width="29" height="29" fill="white"/>
</clipPath>
</defs>
</svg>
